<svg width="166" height="188" viewBox="0 0 166 188" fill="none" xmlns="http://www.w3.org/2000/svg">
<path d="M82.57 187.568C80.8534 187.567 79.1671 187.116 77.68 186.258L4.89 144.258C3.40164 143.397 2.16624 142.158 1.30789 140.668C0.449537 139.178 -0.00152815 137.488 3.88967e-06 135.768V51.7682C0.00197798 50.0518 0.454706 48.366 1.31288 46.8796C2.17106 45.3931 3.40458 44.1581 4.89 43.2982L77.68 1.2982C79.1675 0.447497 80.8514 0 82.565 0C84.2786 0 85.9625 0.447497 87.45 1.2982L160.25 43.2982C161.733 44.1602 162.964 45.3959 163.82 46.8821C164.676 48.3683 165.128 50.053 165.13 51.7682V135.818C165.128 137.533 164.676 139.218 163.82 140.704C162.964 142.191 161.733 143.426 160.25 144.288L87.45 186.288C85.9642 187.136 84.2809 187.578 82.57 187.568V187.568ZM82.57 5.9182C81.9066 5.91289 81.254 6.08555 80.68 6.4182L7.89 48.4182C7.31078 48.7514 6.83052 49.2326 6.49842 49.8124C6.16632 50.3923 5.99431 51.05 6 51.7182V135.768C5.99962 136.431 6.17415 137.083 6.50598 137.657C6.83781 138.231 7.31521 138.708 7.89 139.038L80.68 181.038C81.2538 181.367 81.9036 181.54 82.565 181.54C83.2264 181.54 83.8762 181.367 84.45 181.038L157.25 139.038C157.822 138.705 158.297 138.228 158.627 137.654C158.957 137.081 159.13 136.43 159.13 135.768V51.7682C159.13 51.1063 158.957 50.4558 158.627 49.8819C158.297 49.3081 157.822 48.8309 157.25 48.4982L84.45 6.4982C83.8872 6.13874 83.2375 5.93832 82.57 5.9182V5.9182Z" fill="white"/>
<path d="M82.57 164.758C80.9657 164.762 79.3888 164.341 78 163.538L24.38 132.538C22.9981 131.738 21.8505 130.589 21.0521 129.206C20.2536 127.823 19.8322 126.255 19.83 124.658V62.7782C19.8367 61.1826 20.2624 59.6167 21.0644 58.2373C21.8664 56.8579 23.0167 55.7134 24.4 54.9182L78 23.9182C79.3825 23.1223 80.9498 22.7035 82.545 22.7035C84.1402 22.7035 85.7075 23.1223 87.09 23.9182L140.72 54.9182C142.1 55.7183 143.246 56.8659 144.044 58.2467C144.842 59.6274 145.265 61.1933 145.27 62.7882V124.708C145.266 126.305 144.844 127.872 144.045 129.255C143.247 130.637 142.101 131.786 140.72 132.588L87.09 163.588C85.7113 164.366 84.153 164.769 82.57 164.758V164.758ZM82.57 28.7582C82.0266 28.7589 81.4927 28.9001 81.02 29.1682L27.4 60.1682C26.9301 60.4407 26.5398 60.8314 26.2678 61.3016C25.9959 61.7718 25.8518 62.305 25.85 62.8482V124.768C25.8501 125.313 25.9933 125.848 26.2653 126.32C26.5374 126.793 26.9287 127.185 27.4 127.458L81 158.338C81.4684 158.613 82.0018 158.758 82.545 158.758C83.0883 158.758 83.6216 158.613 84.09 158.338L137.72 127.338C138.191 127.067 138.581 126.676 138.854 126.206C139.126 125.735 139.269 125.202 139.27 124.658V62.7782C139.266 62.2354 139.121 61.703 138.85 61.2331C138.578 60.7633 138.189 60.3722 137.72 60.0982L84.09 29.0982C83.623 28.8478 83.0999 28.7205 82.57 28.7282V28.7582Z" fill="white"/>
<path d="M82.56 141.918C81.0819 141.917 79.6302 141.527 78.35 140.788L43.92 120.918C42.6435 120.177 41.5839 119.113 40.8469 117.834C40.1099 116.555 39.7213 115.105 39.72 113.628V73.9182C39.7203 72.4417 40.1085 70.9912 40.8456 69.7118C41.5826 68.4324 42.6428 67.3691 43.92 66.6282L78.36 46.6982C79.6388 45.9611 81.0889 45.573 82.565 45.573C84.0411 45.573 85.4912 45.9611 86.77 46.6982L121.2 66.5782C122.487 67.3213 123.555 68.3918 124.294 69.681C125.033 70.9701 125.418 72.4321 125.41 73.9182V113.618C125.409 115.095 125.02 116.545 124.283 117.824C123.546 119.103 122.486 120.167 121.21 120.908L86.77 140.788C85.4904 141.528 84.0383 141.918 82.56 141.918ZM82.56 51.5682C82.1392 51.57 81.7259 51.6802 81.36 51.8882L46.92 71.7682C46.554 71.983 46.2507 72.2899 46.0402 72.6583C45.8296 73.0267 45.7193 73.4439 45.72 73.8682V113.618C45.7202 114.042 45.8311 114.459 46.0415 114.827C46.2519 115.196 46.5547 115.503 46.92 115.718L81.36 135.598C81.7264 135.81 82.142 135.921 82.565 135.921C82.988 135.921 83.4036 135.81 83.77 135.598L118.21 115.718C118.575 115.503 118.878 115.196 119.089 114.827C119.299 114.459 119.41 114.042 119.41 113.618V73.9182C119.412 73.4925 119.301 73.0739 119.088 72.705C118.876 72.3362 118.569 72.0302 118.2 71.8182L83.77 51.9182C83.4039 51.6985 82.9869 51.5779 82.56 51.5682V51.5682Z" fill="white"/>
</svg>
