<svg width="206" height="206" viewBox="0 0 206 206" fill="none" xmlns="http://www.w3.org/2000/svg">
<path d="M102.57 196.568C100.853 196.567 99.1671 196.116 97.68 195.258L24.89 153.258C23.4016 152.397 22.1662 151.158 21.3079 149.668C20.4495 148.178 19.9985 146.488 20 144.768V60.7682C20.002 59.0518 20.4547 57.366 21.3129 55.8796C22.1711 54.3931 23.4046 53.1581 24.89 52.2982L97.68 10.2982C99.1675 9.4475 100.851 9 102.565 9C104.279 9 105.962 9.4475 107.45 10.2982L180.25 52.2982C181.733 53.1602 182.964 54.3959 183.82 55.8821C184.676 57.3683 185.128 59.053 185.13 60.7682V144.818C185.128 146.533 184.676 148.218 183.82 149.704C182.964 151.191 181.733 152.426 180.25 153.288L107.45 195.288C105.964 196.136 104.281 196.578 102.57 196.568V196.568ZM102.57 14.9182C101.907 14.9129 101.254 15.0856 100.68 15.4182L27.89 57.4182C27.3108 57.7514 26.8305 58.2326 26.4984 58.8124C26.1663 59.3923 25.9943 60.05 26 60.7182V144.768C25.9996 145.431 26.1741 146.083 26.506 146.657C26.8378 147.231 27.3152 147.708 27.89 148.038L100.68 190.038C101.254 190.367 101.904 190.54 102.565 190.54C103.226 190.54 103.876 190.367 104.45 190.038L177.25 148.038C177.822 147.705 178.297 147.228 178.627 146.654C178.957 146.081 179.13 145.43 179.13 144.768V60.7682C179.13 60.1063 178.957 59.4558 178.627 58.8819C178.297 58.3081 177.822 57.8309 177.25 57.4982L104.45 15.4982C103.887 15.1387 103.238 14.9383 102.57 14.9182V14.9182Z" fill="white"/>
<path d="M102.57 173.758C100.966 173.762 99.3888 173.341 98 172.538L44.38 141.538C42.9981 140.738 41.8505 139.589 41.0521 138.206C40.2536 136.823 39.8322 135.255 39.83 133.658V71.7782C39.8367 70.1826 40.2624 68.6167 41.0644 67.2373C41.8664 65.8579 43.0167 64.7134 44.4 63.9182L98 32.9182C99.3825 32.1223 100.95 31.7035 102.545 31.7035C104.14 31.7035 105.707 32.1223 107.09 32.9182L160.72 63.9182C162.1 64.7183 163.246 65.8659 164.044 67.2467C164.842 68.6274 165.265 70.1933 165.27 71.7882V133.708C165.266 135.305 164.844 136.872 164.045 138.255C163.247 139.637 162.101 140.786 160.72 141.588L107.09 172.588C105.711 173.366 104.153 173.769 102.57 173.758V173.758ZM102.57 37.7582C102.027 37.7589 101.493 37.9001 101.02 38.1682L47.4 69.1682C46.9301 69.4407 46.5398 69.8314 46.2678 70.3016C45.9959 70.7718 45.8518 71.305 45.85 71.8482V133.768C45.8501 134.313 45.9933 134.848 46.2653 135.32C46.5374 135.793 46.9287 136.185 47.4 136.458L101 167.338C101.468 167.613 102.002 167.758 102.545 167.758C103.088 167.758 103.622 167.613 104.09 167.338L157.72 136.338C158.191 136.067 158.581 135.676 158.854 135.206C159.126 134.735 159.269 134.202 159.27 133.658V71.7782C159.266 71.2354 159.121 70.703 158.85 70.2331C158.578 69.7633 158.189 69.3722 157.72 69.0982L104.09 38.0982C103.623 37.8478 103.1 37.7205 102.57 37.7282V37.7582Z" fill="white"/>
<path d="M102.56 150.918C101.082 150.917 99.6302 150.527 98.35 149.788L63.92 129.918C62.6435 129.177 61.5839 128.113 60.8469 126.834C60.1099 125.555 59.7213 124.105 59.72 122.628V82.9182C59.7203 81.4417 60.1085 79.9912 60.8456 78.7118C61.5826 77.4324 62.6428 76.3691 63.92 75.6282L98.36 55.6982C99.6388 54.9611 101.089 54.573 102.565 54.573C104.041 54.573 105.491 54.9611 106.77 55.6982L141.2 75.5782C142.487 76.3213 143.555 77.3918 144.294 78.681C145.033 79.9701 145.418 81.4321 145.41 82.9182V122.618C145.409 124.095 145.02 125.545 144.283 126.824C143.546 128.103 142.486 129.167 141.21 129.908L106.77 149.788C105.49 150.528 104.038 150.918 102.56 150.918ZM102.56 60.5682C102.139 60.57 101.726 60.6802 101.36 60.8882L66.92 80.7682C66.554 80.983 66.2507 81.2899 66.0402 81.6583C65.8296 82.0267 65.7193 82.4439 65.72 82.8682V122.618C65.7202 123.042 65.8311 123.459 66.0415 123.827C66.2519 124.196 66.5547 124.503 66.92 124.718L101.36 144.598C101.726 144.81 102.142 144.921 102.565 144.921C102.988 144.921 103.404 144.81 103.77 144.598L138.21 124.718C138.575 124.503 138.878 124.196 139.089 123.827C139.299 123.459 139.41 123.042 139.41 122.618V82.9182C139.412 82.4925 139.301 82.0739 139.088 81.705C138.876 81.3362 138.569 81.0302 138.2 80.8182L103.77 60.9182C103.404 60.6985 102.987 60.5779 102.56 60.5682V60.5682Z" fill="white"/>
</svg>
